<?xml version="1.0" encoding="utf-8"?>
<!-- Generator: Adobe Illustrator 23.0.1, SVG Export Plug-In . SVG Version: 6.00 Build 0)  -->
<svg version="1.1" id="Layer_1" xmlns="http://www.w3.org/2000/svg" xmlns:xlink="http://www.w3.org/1999/xlink" x="0px" y="0px"
	 viewBox="0 0 207.14 213.94" style="enable-background:new 0 0 207.14 213.94;" xml:space="preserve">
<style type="text/css">
	.st0{fill:#FFFFFF;}
	.st1{fill:#616A72;}
</style>
<g>
	<path class="st0" d="M180.96,360.53c0-9.27,13.88-16.76,31.04-16.76"/>
	<g>
		<path class="st1" d="M190.96,360.53c-0.09,1.76,0.66-0.49-0.26,0.59c2.08-2.45-1.56,1.32,0.79-1.22c1.45-1.57,2.62-2.2,4.75-3.18
			c4.9-2.26,10.42-2.87,15.76-2.95c12.86-0.19,12.9-20.19,0-20c-16.53,0.24-40.04,6.75-41.04,26.76
			C170.32,373.4,190.32,373.37,190.96,360.53L190.96,360.53z"/>
	</g>
</g>
<g>
	<path class="st0" d="M44.37,360.53c0-9.27-13.88-16.76-31.04-16.76"/>
	<g>
		<path class="st1" d="M54.37,360.53c-1-20.01-24.51-26.52-41.04-26.76c-12.87-0.19-12.88,19.81,0,20
			c5.34,0.08,10.85,0.7,15.76,2.95c2.09,0.96,3.36,1.69,4.75,3.18c1.08,1.15,0.19,0.05,0.55,0.8c0.34,0.64,0.32,0.56-0.07-0.23
			c0.28,1.17,0.3,1.19,0.05,0.06C35.01,373.34,55.02,373.42,54.37,360.53L54.37,360.53z"/>
	</g>
</g>
<g>
	<path class="st0" d="M112.67,298.93c0,0-5.13-5.31-5.13-14s10.26-8.69,10.26-14.96s-10.26-7.24-10.26-13.52
		c0-6.28,5.13-15.45,5.13-15.45"/>
	<g>
		<path class="st1" d="M119.74,291.85c-0.86-0.92,0.02-0.11,0.37,0.53c-0.56-0.99-1.52-2.39-1.8-3.11
			c-0.31-0.79-0.49-2.41-0.75-3.55c-0.21-0.93-0.28-0.84-0.27-0.13c0.01,0.85,0.61-1.16,0.16-0.24c-0.49,1,1.09-0.79,0.19-0.11
			c-0.93,0.7,0.98-0.72,1.16-0.85c1.35-1.01,2.82-1.97,4.03-3.16c2.9-2.85,4.87-6.7,4.93-10.83c0.06-4.2-1.52-8.13-4.36-11.2
			c-1.22-1.32-2.65-2.39-4.1-3.46c-0.66-0.49-1.35-0.94-2-1.44c-0.74-0.57-1.04-0.32-0.28-0.22c-0.88-0.12-0.5-1.19-0.17-0.05
			c0.23,0.81,0.45,1.62,0.68,2.43c0.02-0.4,0.04-0.81,0.06-1.21c0.36-0.79,0.8-2.62,1.21-3.78c0.61-1.73,1.49-3.59,2.5-5.41
			c6.22-11.28-11.05-21.38-17.27-10.09c-3.48,6.31-6.88,14.1-6.41,21.44c0.36,5.66,3.68,9.72,8.02,12.99
			c0.79,0.59,3.05,2.22,2.92,2.14c-0.23-0.15,0.27,1.12-0.09-0.13c-0.23-0.81-0.45-1.62-0.68-2.43c-0.04-1.26,0.34-2.28,1.13-3.08
			c-0.18-0.21,0.48-0.18-0.55,0.47c-0.89,0.56,1.1-0.83-0.39,0.28c-1.64,1.23-3.42,2.39-4.86,3.87c-3.42,3.52-5.35,7.92-5.55,12.83
			c-0.32,7.72,2.74,15.99,8.02,21.66C114.39,315.43,128.51,301.26,119.74,291.85L119.74,291.85z"/>
	</g>
</g>
<g>
	<path class="st0" d="M161.13,298.93c0,0-5.13-5.31-5.13-14s10.26-8.69,10.26-14.96S156,262.72,156,256.45
		c0-6.28,5.13-15.45,5.13-15.45"/>
	<g>
		<path class="st1" d="M168.2,291.85c-0.86-0.92,0.02-0.11,0.37,0.53c-0.56-0.99-1.52-2.39-1.8-3.11c-0.31-0.79-0.49-2.41-0.75-3.55
			c-0.21-0.93-0.28-0.84-0.27-0.13c0.01,0.85,0.61-1.16,0.16-0.24c-0.49,1,1.09-0.79,0.19-0.11c-0.93,0.7,0.98-0.72,1.16-0.85
			c1.35-1.01,2.82-1.97,4.03-3.16c2.9-2.85,4.87-6.7,4.93-10.83c0.06-4.2-1.52-8.13-4.36-11.2c-1.22-1.32-2.65-2.39-4.1-3.46
			c-0.66-0.49-1.35-0.94-2-1.44c-0.74-0.57-1.04-0.32-0.28-0.22c-0.88-0.12-0.5-1.19-0.17-0.05c0.23,0.81,0.45,1.62,0.68,2.43
			c0.02-0.4,0.04-0.81,0.06-1.21c0.36-0.79,0.8-2.62,1.21-3.78c0.61-1.73,1.49-3.59,2.5-5.41c6.22-11.28-11.05-21.38-17.27-10.09
			c-3.48,6.31-6.88,14.1-6.41,21.44c0.36,5.66,3.68,9.72,8.02,12.99c0.79,0.59,3.05,2.22,2.92,2.14c-0.23-0.15,0.27,1.12-0.09-0.13
			c-0.23-0.81-0.45-1.62-0.68-2.43c-0.04-1.26,0.34-2.28,1.13-3.08c-0.18-0.21,0.48-0.18-0.55,0.47c-0.89,0.56,1.1-0.83-0.39,0.28
			c-1.64,1.23-3.42,2.39-4.86,3.87c-3.42,3.52-5.35,7.92-5.55,12.83c-0.32,7.72,2.74,15.99,8.02,21.66
			C162.85,315.43,176.97,301.26,168.2,291.85L168.2,291.85z"/>
	</g>
</g>
<g>
	<path class="st0" d="M64.2,298.93c0,0-5.13-5.31-5.13-14s10.26-8.69,10.26-14.96s-10.26-7.24-10.26-13.52
		c0-6.28,5.13-15.45,5.13-15.45"/>
	<g>
		<path class="st1" d="M71.27,291.85c-0.86-0.92,0.02-0.11,0.37,0.53c-0.56-0.99-1.52-2.39-1.8-3.11c-0.31-0.79-0.49-2.41-0.75-3.55
			c-0.21-0.93-0.28-0.84-0.27-0.13c0.01,0.85,0.61-1.16,0.16-0.24c-0.49,1,1.09-0.79,0.19-0.11c-0.93,0.7,0.98-0.72,1.16-0.85
			c1.35-1.01,2.82-1.97,4.03-3.16c2.9-2.85,4.87-6.7,4.93-10.83c0.06-4.2-1.52-8.13-4.36-11.2c-1.22-1.32-2.65-2.39-4.1-3.46
			c-0.66-0.49-1.35-0.94-2-1.44c-0.74-0.57-1.04-0.32-0.28-0.22c-0.88-0.12-0.5-1.19-0.17-0.05c0.23,0.81,0.45,1.62,0.68,2.43
			c0.02-0.4,0.04-0.81,0.06-1.21c0.36-0.79,0.8-2.62,1.21-3.78c0.61-1.73,1.49-3.59,2.5-5.41c6.22-11.28-11.05-21.38-17.27-10.09
			c-3.48,6.31-6.88,14.1-6.41,21.44c0.36,5.66,3.68,9.72,8.02,12.99c0.79,0.59,3.05,2.22,2.92,2.14c-0.23-0.15,0.27,1.12-0.09-0.13
			c-0.23-0.81-0.45-1.62-0.68-2.43c-0.04-1.26,0.34-2.28,1.13-3.08c-0.18-0.21,0.48-0.18-0.55,0.47c-0.89,0.56,1.1-0.83-0.39,0.28
			c-1.64,1.23-3.42,2.39-4.86,3.87c-3.42,3.52-5.35,7.92-5.55,12.83c-0.32,7.72,2.74,15.99,8.02,21.66
			C65.93,315.43,80.05,301.26,71.27,291.85L71.27,291.85z"/>
	</g>
</g>
<g>
	<g>
		<path class="st1" d="M174,420.28c-35.76,0-71.51,0-107.27,0c-5.14,0-10.27,0-15.41,0c3.33,3.33,6.67,6.67,10,10
			c0-30.77,0-61.55,0-92.32c0-4.36,0-8.71,0-13.07c-3.33,3.33-6.67,6.67-10,10c35.76,0,71.51,0,107.27,0c5.14,0,10.27,0,15.41,0
			c-3.33-3.33-6.67-6.67-10-10c0,30.77,0,61.55,0,92.32c0,4.36,0,8.71,0,13.07c0,12.87,20,12.89,20,0c0-30.77,0-61.55,0-92.32
			c0-4.36,0-8.71,0-13.07c0-5.41-4.58-10-10-10c-35.76,0-71.51,0-107.27,0c-5.14,0-10.27,0-15.41,0c-5.41,0-10,4.58-10,10
			c0,30.77,0,61.55,0,92.32c0,4.36,0,8.71,0,13.07c0,5.41,4.58,10,10,10c35.76,0,71.51,0,107.27,0c5.14,0,10.27,0,15.41,0
			C186.87,440.28,186.89,420.28,174,420.28z"/>
	</g>
</g>
<g>
	<g>
		<path class="st1" d="M434.09,125.69c0,0-0.01,0.01-0.01,0.01c0.96-0.96,1.91-1.91,2.87-2.87c0.65-0.3,5.16-0.98,2.67-0.93
			c-1.02,0.02-2.04,0.11-3.06,0.15c-3.06,0.12-6.12,0.2-9.18,0.27c-9.93,0.23-19.86,0.36-29.79,0.47
			c-23.55,0.25-47.12,0.39-70.67-0.01c-4.89-0.08-9.78-0.19-14.67-0.39c-1.77-0.07-3.54-0.16-5.31-0.28c-1-0.07-5.32-0.59-1.82-0.1
			c1.96,2.57,3.92,5.14,5.87,7.71c0.02-6.09,1.94-10.01,6.84-14.39c4.8-4.28,12.9-7.45,19.88-9.46c20.75-6,42.86-6.94,64.32-7.52
			C415.02,98,428.01,98,441,98c-2.67-2.67-5.33-5.33-8-8c0,13.24,0,26.48,0,39.72c0,10.3,16,10.31,16,0c0-13.24,0-26.48,0-39.72
			c0-4.32-3.67-8-8-8c-25.09,0-50.32-0.15-75.3,2.61c-20.12,2.22-43.38,5.51-59.18,19.41c-7.46,6.56-11.49,15.82-11.53,25.71
			c-0.01,3.13,2.47,7.23,5.87,7.71c18.65,2.64,38.17,1.56,56.94,1.56c23.19,0.01,46.38-0.14,69.56-0.68
			c6.54-0.15,16.15,1.25,20.53-4.56c2.6-3.45,0.55-8.94-2.87-10.95C440.94,120.42,436.7,122.22,434.09,125.69z"/>
	</g>
</g>
<path class="st1" d="M507,102h-70c-5.5,0-10-4.5-10-10v0c0-5.5,4.5-10,10-10h70c5.5,0,10,4.5,10,10v0C517,97.5,512.5,102,507,102z"
	/>
<circle class="st0" cx="441" cy="92" r="4"/>
<circle class="st0" cx="472" cy="92" r="4"/>
<circle class="st0" cx="503" cy="92" r="4"/>
<path class="st1" d="M186.84,4.29l-65.96,48.27C95.8,70.92,70.49,89.22,47.55,110.24c-18.49,16.93-39.32,37.24-44.94,62.68
	c-2.65,12.01,0.08,24.21,7.28,34.12c2.28,3.14,7.76,5.42,11.51,3.41c20.56-11.01,39.28-26.36,58.05-40.09
	c23.18-16.95,46.25-34.07,69.02-51.56c4.49-3.45,11.02-7.24,14.6-12.28c1.98-2.13,3.1-5,2.54-8.02c-0.17-1.84-1.05-3.49-2.34-4.81
	c-6.58-9-13.17-17.99-19.75-26.99l57.96-42.42c5.5-4.02,6.7-11.81,2.68-17.31C200.12,1.47,192.33,0.27,186.84,4.29z M142.27,98.55
	c-1.83,1.43-3.67,2.85-5.51,4.26c-9.75,7.49-19.58,14.89-29.42,22.26c-23.35,17.48-46.8,34.85-70.63,51.68
	c-4.91,3.47-9.84,6.91-14.83,10.26c-0.74-3.28-0.6-6.79,0.31-11.06c1.66-7.79,7.44-16.88,12.94-24
	c16.34-21.17,37.75-38.28,58.77-54.56c8.81-6.82,17.76-13.47,26.74-20.08c2.02,0.6,4.18,0.7,6.26,0.24
	C132.02,84.56,137.14,91.55,142.27,98.55z M131.12,66.55c-2.21,1.62-5.31,1.14-6.92-1.07c-1.62-2.21-1.14-5.31,1.07-6.92
	s5.31-1.14,6.92,1.07C133.81,61.84,133.33,64.94,131.12,66.55z M162.1,43.88c-2.21,1.62-5.31,1.14-6.92-1.07
	c-1.62-2.21-1.14-5.31,1.07-6.92s5.31-1.14,6.92,1.07C164.79,39.16,164.31,42.26,162.1,43.88z M193.08,21.21
	c-2.21,1.62-5.31,1.14-6.92-1.07c-1.62-2.21-1.14-5.31,1.07-6.92c2.21-1.62,5.31-1.14,6.92,1.07
	C195.77,16.49,195.29,19.59,193.08,21.21z"/>
</svg>
