<?xml version="1.0" encoding="UTF-8" standalone="no"?>
<!DOCTYPE svg PUBLIC "-//W3C//DTD SVG 1.1//EN" "http://www.w3.org/Graphics/SVG/1.1/DTD/svg11.dtd">
<svg width="100%" height="100%" viewBox="0 0 214 208" version="1.1" xmlns="http://www.w3.org/2000/svg" xmlns:xlink="http://www.w3.org/1999/xlink" xml:space="preserve" xmlns:serif="http://www.serif.com/" style="fill-rule:evenodd;clip-rule:evenodd;stroke-linejoin:round;stroke-miterlimit:2;">
    <g transform="matrix(-6.12323e-17,1,1,6.12323e-17,1.26837e-14,0)">
        <path d="M186.84,4.29L120.88,52.56C95.8,70.92 70.49,89.22 47.55,110.24C29.06,127.17 8.23,147.48 2.61,172.92C-0.04,184.93 2.69,197.13 9.89,207.04C12.17,210.18 17.65,212.46 21.4,210.45C41.96,199.44 60.68,184.09 79.45,170.36C102.63,153.41 125.7,136.29 148.47,118.8C152.96,115.35 159.49,111.56 163.07,106.52C165.05,104.39 166.17,101.52 165.61,98.5C165.44,96.66 164.56,95.01 163.27,93.69C156.69,84.69 150.1,75.7 143.52,66.7L201.48,24.28C206.98,20.26 208.18,12.47 204.16,6.97C200.12,1.47 192.33,0.27 186.84,4.29ZM142.27,98.55C140.44,99.98 138.6,101.4 136.76,102.81C127.01,110.3 117.18,117.7 107.34,125.07C83.99,142.55 60.54,159.92 36.71,176.75C31.8,180.22 26.87,183.66 21.88,187.01C21.14,183.73 21.28,180.22 22.19,175.95C23.85,168.16 29.63,159.07 35.13,151.95C51.47,130.78 72.88,113.67 93.9,97.39C102.71,90.57 111.66,83.92 120.64,77.31C122.66,77.91 124.82,78.01 126.9,77.55C132.02,84.56 137.14,91.55 142.27,98.55ZM131.12,66.55C128.91,68.17 125.81,67.69 124.2,65.48C122.58,63.27 123.06,60.17 125.27,58.56C127.48,56.95 130.58,57.42 132.19,59.63C133.81,61.84 133.33,64.94 131.12,66.55ZM162.1,43.88C159.89,45.5 156.79,45.02 155.18,42.81C153.56,40.6 154.04,37.5 156.25,35.89C158.46,34.28 161.56,34.75 163.17,36.96C164.79,39.16 164.31,42.26 162.1,43.88ZM193.08,21.21C190.87,22.83 187.77,22.35 186.16,20.14C184.54,17.93 185.02,14.83 187.23,13.22C189.44,11.6 192.54,12.08 194.15,14.29C195.77,16.49 195.29,19.59 193.08,21.21Z" style="fill:rgb(97,106,114);fill-rule:nonzero;"/>
    </g>
</svg>
