<?xml version="1.0" encoding="utf-8"?>
<!-- Generator: Adobe Illustrator 23.0.1, SVG Export Plug-In . SVG Version: 6.00 Build 0)  -->
<svg version="1.1" id="Layer_1" xmlns="http://www.w3.org/2000/svg" xmlns:xlink="http://www.w3.org/1999/xlink" x="0px" y="0px"
	 viewBox="0 0 219.14 210.94" style="enable-background:new 0 0 219.14 210.94;" xml:space="preserve">
<style type="text/css">
	.st0{fill:#FFFFFF;}
	.st1{fill:#616A72;}
</style>
<g>
	<path class="st0" d="M177.96,131.53c0-9.27,13.88-16.76,31.04-16.76"/>
	<g>
		<path class="st1" d="M186.46,131.53c-0.07,1.39,0.43-1.1-0.05-0.17c0.74-1.45-0.11-0.23,1.03-1.53c1.34-1.53,3.24-2.56,5.06-3.41
			c5.13-2.4,10.92-3.07,16.51-3.16c10.93-0.16,10.96-17.16,0-17c-15.6,0.23-38.59,6.19-39.54,25.26
			C168.91,142.47,185.91,142.44,186.46,131.53L186.46,131.53z"/>
	</g>
</g>
<g>
	<path class="st0" d="M41.37,131.53c0-9.27-13.88-16.76-31.04-16.76"/>
	<g>
		<path class="st1" d="M49.87,131.53c-0.95-19.08-23.94-25.04-39.54-25.26c-10.94-0.16-10.95,16.84,0,17
			c5.6,0.08,11.38,0.76,16.51,3.16c1.82,0.85,3.71,1.88,5.06,3.41c0.57,0.65,0.48,0.63,0.79,1.11c0.08,0.12,0.23,1.44,0.18,0.59
			C33.42,142.42,50.42,142.49,49.87,131.53L49.87,131.53z"/>
	</g>
</g>
<g>
	<path class="st0" d="M109.67,69.93c0,0-5.13-5.31-5.13-14s10.26-8.69,10.26-14.96s-10.26-7.24-10.26-13.52S109.67,12,109.67,12"/>
	<g>
		<path class="st1" d="M115.68,63.91c-0.64-0.69-0.32-0.49,0.14,0.22c-0.68-1.06-1.41-2.11-1.87-3.29
			c-0.77-1.95-1.07-4.68-0.67-5.41c0.38-0.69,3.86-2.67,5.5-4.27c2.63-2.58,4.42-6.03,4.49-9.77c0.07-3.8-1.36-7.35-3.92-10.14
			c-1.52-1.65-5.06-4.69-6.37-5.12c-0.95-0.31-0.2-0.71-0.41-0.35c0.16,0.56,0.32,1.12,0.47,1.67c0.02-0.4,0.04-0.81,0.06-1.21
			c0.51-1.35,0.77-2.81,1.26-4.18c0.71-1.99,1.63-3.92,2.65-5.77c5.28-9.59-9.39-18.18-14.68-8.58c-3.34,6.07-6.71,13.62-6.21,20.69
			c0.36,5.09,3.37,8.74,7.28,11.7c0.89,0.68,2.47,2,3.07,2.25c0.64,0.27,0.16,0.47,0.3,0.29c-0.16-0.56-0.32-1.12-0.47-1.67
			c-0.04-0.9,0.23-1.63,0.81-2.17c-0.02,0.16-0.98,0.84-1.36,1.14c-1.53,1.18-3.2,2.24-4.56,3.63c-3.14,3.23-4.92,7.25-5.11,11.77
			c-0.32,7.32,2.57,15.23,7.58,20.6C111.13,83.95,123.13,71.91,115.68,63.91L115.68,63.91z"/>
	</g>
</g>
<g>
	<path class="st0" d="M158.13,69.93c0,0-5.13-5.31-5.13-14s10.26-8.69,10.26-14.96S153,33.72,153,27.45S158.13,12,158.13,12"/>
	<g>
		<path class="st1" d="M164.14,63.91c-0.64-0.69-0.32-0.49,0.14,0.22c-0.68-1.06-1.41-2.11-1.87-3.29
			c-0.77-1.95-1.07-4.68-0.67-5.41c0.38-0.69,3.86-2.67,5.5-4.27c2.63-2.58,4.42-6.03,4.49-9.77c0.07-3.8-1.36-7.35-3.92-10.14
			c-1.52-1.65-5.06-4.69-6.37-5.12c-0.95-0.31-0.2-0.71-0.41-0.35c0.16,0.56,0.32,1.12,0.47,1.67c0.02-0.4,0.04-0.81,0.06-1.21
			c0.51-1.35,0.77-2.81,1.26-4.18c0.71-1.99,1.63-3.92,2.65-5.77c5.28-9.59-9.39-18.18-14.68-8.58c-3.34,6.07-6.71,13.62-6.21,20.69
			c0.36,5.09,3.37,8.74,7.28,11.7c0.89,0.68,2.47,2,3.07,2.25c0.64,0.27,0.16,0.47,0.3,0.29c-0.16-0.56-0.32-1.12-0.47-1.67
			c-0.04-0.9,0.23-1.63,0.81-2.17c-0.02,0.16-0.98,0.84-1.36,1.14c-1.53,1.18-3.2,2.24-4.56,3.63c-3.14,3.23-4.92,7.25-5.11,11.77
			c-0.32,7.32,2.57,15.23,7.58,20.6C159.6,83.95,171.6,71.91,164.14,63.91L164.14,63.91z"/>
	</g>
</g>
<g>
	<path class="st0" d="M61.2,69.93c0,0-5.13-5.31-5.13-14s10.26-8.69,10.26-14.96s-10.26-7.24-10.26-13.52S61.2,12,61.2,12"/>
	<g>
		<path class="st1" d="M67.21,63.91c-0.64-0.69-0.32-0.49,0.14,0.22c-0.68-1.06-1.41-2.11-1.87-3.29c-0.77-1.95-1.07-4.68-0.67-5.41
			c0.38-0.69,3.86-2.67,5.5-4.27c2.63-2.58,4.42-6.03,4.49-9.77c0.07-3.8-1.36-7.35-3.92-10.14c-1.52-1.65-5.06-4.69-6.37-5.12
			c-0.95-0.31-0.2-0.71-0.41-0.35c0.16,0.56,0.32,1.12,0.47,1.67c0.02-0.4,0.04-0.81,0.06-1.21c0.51-1.35,0.77-2.81,1.26-4.18
			c0.71-1.99,1.63-3.92,2.65-5.77c5.28-9.59-9.39-18.18-14.68-8.58c-3.34,6.07-6.71,13.62-6.21,20.69c0.36,5.09,3.37,8.74,7.28,11.7
			c0.89,0.68,2.47,2,3.07,2.25c0.64,0.27,0.16,0.47,0.3,0.29c-0.16-0.56-0.32-1.12-0.47-1.67c-0.04-0.9,0.23-1.63,0.81-2.17
			c-0.02,0.16-0.98,0.84-1.36,1.14c-1.53,1.18-3.2,2.24-4.56,3.63c-3.14,3.23-4.92,7.25-5.11,11.77c-0.32,7.32,2.57,15.23,7.58,20.6
			C62.67,83.95,74.67,71.91,67.21,63.91L67.21,63.91z"/>
	</g>
</g>
<g>
	<g>
		<path class="st1" d="M171,192.78c-35.76,0-71.51,0-107.27,0c-5.14,0-10.27,0-15.41,0c2.83,2.83,5.67,5.67,8.5,8.5
			c0-30.77,0-61.55,0-92.32c0-4.36,0-8.71,0-13.07c-2.83,2.83-5.67,5.67-8.5,8.5c35.76,0,71.51,0,107.27,0c5.14,0,10.27,0,15.41,0
			c-2.83-2.83-5.67-5.67-8.5-8.5c0,30.77,0,61.55,0,92.32c0,4.36,0,8.71,0,13.07c0,10.94,17,10.96,17,0c0-30.77,0-61.55,0-92.32
			c0-4.36,0-8.71,0-13.07c0-4.59-3.89-8.5-8.5-8.5c-35.76,0-71.51,0-107.27,0c-5.14,0-10.27,0-15.41,0c-4.59,0-8.5,3.89-8.5,8.5
			c0,30.77,0,61.55,0,92.32c0,4.36,0,8.71,0,13.07c0,4.59,3.89,8.5,8.5,8.5c35.76,0,71.51,0,107.27,0c5.14,0,10.27,0,15.41,0
			C181.94,209.78,181.96,192.78,171,192.78z"/>
	</g>
</g>
</svg>
